<svg xmlns="http://www.w3.org/2000/svg" version="1.1" xmlns:xlink="http://www.w3.org/1999/xlink" xmlns:svgjs="http://svgjs.dev/svgjs" width="1440" height="560" preserveAspectRatio="none" viewBox="0 0 1440 560"><g mask="url(&quot;#SvgjsMask5876&quot;)" fill="none"><rect width="1440" height="560" x="0" y="0" fill="url(&quot;#SvgjsRadialGradient5877&quot;)"></rect><use xlink:href="#SvgjsG5882" transform="translate(0, 0)" fill="rgba(255, 200, 221, 1)"></use><use xlink:href="#SvgjsG5882" transform="translate(676.0000000000001, 0)" fill="rgba(255, 200, 221, 1)"></use><use xlink:href="#SvgjsG5882" transform="translate(1352.0000000000002, 0)" fill="rgba(255, 200, 221, 1)"></use></g><defs><mask id="SvgjsMask5876"><rect width="1440" height="560" fill="#ffffff"></rect></mask><radialGradient cx="50%" cy="50%" r="772.53" gradientUnits="userSpaceOnUse" id="SvgjsRadialGradient5877"><stop stop-color="rgba(255, 255, 255, 1)" offset="0"></stop><stop stop-color="rgba(255, 218, 232, 1)" offset="0.55"></stop></radialGradient><g id="SvgjsG5879"><path d="M16.98 5.38L7.69 9.02 2.02 0.81z m-2.59 8.48L10.98 8.91l5.59-2.19zM1.6 2.14l3.4 4.94L-0.59 9.28z"></path><path d="M9.96 9.29L7.3 10.33 5.67 7.98-0.96 10.56l14.97 4.58z"></path></g><g id="SvgjsG5881"><path d="M13.93 15.18l0 0s-2.01-3.77-2.01-3.77a0.6 0.6 0 0 0-0.82-0.25L9.36 12.09c-0.68 0.36-1.2-0.3-2.16-1.74-0.64-0.95-1.33-2.18-1.85-3.49-0.37-0.92-0.66-1.85 0.05-2.22 0 0 1.74-0.92 1.74-0.92l0-0.01c0.31-0.17 0.4-0.54 0.25-0.82l0-0.01L5.33-1c-0.16-0.3-0.53-0.41-0.82-0.25L2.76-0.32C1.99 0.21-0.24 3.12 3.37 10.12c3.81 7.37 7.75 7.25 8.56 6.8 0 0 1.74-0.91 1.75-0.91l0 0c0.31-0.17 0.4-0.54 0.25-0.83z"></path></g><g id="SvgjsG5880"><path d="M9.75 2.28C5.75 1.06 1.75 2.51 0.83 5.53c-0.45 1.48-0.08 3.05 0.88 4.42l-1 3.28 4.32-0.56c0.44 0.21 0.9 0.39 1.38 0.54 4 1.22 7.99-0.23 8.92-3.25 0.92-3.02-1.57-6.45-5.58-7.68zM4.68 7.96a1.07 1.07 0 1 1 0.62-2.04 1.07 1.07 0 0 1-0.62 2.04z m3.04 0.93a1.07 1.07 0 1 1 0.63-2.04 1.07 1.07 0 0 1-0.63 2.04z m3.01 0.92c-0.56-0.17-0.88-0.77-0.71-1.33s0.77-0.88 1.33-0.71 0.88 0.77 0.71 1.33a1.07 1.07 0 0 1-1.33 0.71z"></path></g><g id="SvgjsG5878"><path d="M10.04 13.89L2.29 11.51 5.38 1.38l7.76 2.37-3.1 10.14z m-4.32 0.28a0.46 0.46 0 1 1 0.26-0.87 0.46 0.46 0 0 1-0.26 0.87zM8.93 1.26l1.33 0.41c0.19 0.06 0.08 0.4-0.1 0.34l-1.34-0.41c-0.19-0.06-0.09-0.4 0.11-0.34zM13.56 1.76L6.15-0.5C5.83-0.6 5.47-0.34 5.35 0.07L1.52 12.58c-0.12 0.41 0.03 0.82 0.35 0.92l7.41 2.27c0.32 0.1 0.68-0.16 0.81-0.57L13.91 2.69c0.13-0.41-0.03-0.83-0.35-0.93z" fill-rule="evenodd"></path></g><g id="SvgjsG5882"><use xlink:href="#SvgjsG5878" transform="translate(0, 0) scale(1.3)" fill="rgba(255, 200, 221, 1)"></use><use xlink:href="#SvgjsG5879" transform="translate(0, 67.60000000000001) scale(1.3)" fill="rgba(255, 200, 221, 1)"></use><use xlink:href="#SvgjsG5879" transform="translate(0, 135.20000000000002) scale(1.3)" fill="rgba(255, 200, 221, 1)"></use><use xlink:href="#SvgjsG5879" transform="translate(0, 202.8) scale(1.3)" fill="rgba(255, 200, 221, 1)"></use><use xlink:href="#SvgjsG5880" transform="translate(0, 270.40000000000003) scale(1.3)" fill="rgba(255, 200, 221, 1)"></use><use xlink:href="#SvgjsG5879" transform="translate(0, 338.00000000000006) scale(1.3)" fill="rgba(255, 200, 221, 1)"></use><use xlink:href="#SvgjsG5879" transform="translate(0, 405.6) scale(1.3)" fill="rgba(255, 200, 221, 1)"></use><use xlink:href="#SvgjsG5880" transform="translate(0, 473.20000000000005) scale(1.3)" fill="rgba(255, 200, 221, 1)"></use><use xlink:href="#SvgjsG5878" transform="translate(0, 540.8000000000001) scale(1.3)" fill="rgba(255, 200, 221, 1)"></use><use xlink:href="#SvgjsG5878" transform="translate(67.60000000000001, 0) scale(1.3)" fill="rgba(255, 200, 221, 1)"></use><use xlink:href="#SvgjsG5880" transform="translate(67.60000000000001, 67.60000000000001) scale(1.3)" fill="rgba(255, 200, 221, 1)"></use><use xlink:href="#SvgjsG5881" transform="translate(67.60000000000001, 135.20000000000002) scale(1.3)" fill="rgba(255, 200, 221, 1)"></use><use xlink:href="#SvgjsG5878" transform="translate(67.60000000000001, 202.8) scale(1.3)" fill="rgba(255, 200, 221, 1)"></use><use xlink:href="#SvgjsG5881" transform="translate(67.60000000000001, 270.40000000000003) scale(1.3)" fill="rgba(255, 200, 221, 1)"></use><use xlink:href="#SvgjsG5878" transform="translate(67.60000000000001, 338.00000000000006) scale(1.3)" fill="rgba(255, 200, 221, 1)"></use><use xlink:href="#SvgjsG5878" transform="translate(67.60000000000001, 405.6) scale(1.3)" fill="rgba(255, 200, 221, 1)"></use><use xlink:href="#SvgjsG5880" transform="translate(67.60000000000001, 473.20000000000005) scale(1.3)" fill="rgba(255, 200, 221, 1)"></use><use xlink:href="#SvgjsG5880" transform="translate(67.60000000000001, 540.8000000000001) scale(1.3)" fill="rgba(255, 200, 221, 1)"></use><use xlink:href="#SvgjsG5881" transform="translate(135.20000000000002, 0) scale(1.3)" fill="rgba(255, 200, 221, 1)"></use><use xlink:href="#SvgjsG5878" transform="translate(135.20000000000002, 67.60000000000001) scale(1.3)" fill="rgba(255, 200, 221, 1)"></use><use xlink:href="#SvgjsG5879" transform="translate(135.20000000000002, 135.20000000000002) scale(1.3)" fill="rgba(255, 200, 221, 1)"></use><use xlink:href="#SvgjsG5880" transform="translate(135.20000000000002, 202.8) scale(1.3)" fill="rgba(255, 200, 221, 1)"></use><use xlink:href="#SvgjsG5881" transform="translate(135.20000000000002, 270.40000000000003) scale(1.3)" fill="rgba(255, 200, 221, 1)"></use><use xlink:href="#SvgjsG5880" transform="translate(135.20000000000002, 338.00000000000006) scale(1.3)" fill="rgba(255, 200, 221, 1)"></use><use xlink:href="#SvgjsG5878" transform="translate(135.20000000000002, 405.6) scale(1.3)" fill="rgba(255, 200, 221, 1)"></use><use xlink:href="#SvgjsG5878" transform="translate(135.20000000000002, 473.20000000000005) scale(1.3)" fill="rgba(255, 200, 221, 1)"></use><use xlink:href="#SvgjsG5880" transform="translate(135.20000000000002, 540.8000000000001) scale(1.3)" fill="rgba(255, 200, 221, 1)"></use><use xlink:href="#SvgjsG5880" transform="translate(202.8, 0) scale(1.3)" fill="rgba(255, 200, 221, 1)"></use><use xlink:href="#SvgjsG5879" transform="translate(202.8, 67.60000000000001) scale(1.3)" fill="rgba(255, 200, 221, 1)"></use><use xlink:href="#SvgjsG5880" transform="translate(202.8, 135.20000000000002) scale(1.3)" fill="rgba(255, 200, 221, 1)"></use><use xlink:href="#SvgjsG5881" transform="translate(202.8, 202.8) scale(1.3)" fill="rgba(255, 200, 221, 1)"></use><use xlink:href="#SvgjsG5880" transform="translate(202.8, 270.40000000000003) scale(1.3)" fill="rgba(255, 200, 221, 1)"></use><use xlink:href="#SvgjsG5878" transform="translate(202.8, 338.00000000000006) scale(1.3)" fill="rgba(255, 200, 221, 1)"></use><use xlink:href="#SvgjsG5879" transform="translate(202.8, 405.6) scale(1.3)" fill="rgba(255, 200, 221, 1)"></use><use xlink:href="#SvgjsG5880" transform="translate(202.8, 473.20000000000005) scale(1.3)" fill="rgba(255, 200, 221, 1)"></use><use xlink:href="#SvgjsG5878" transform="translate(202.8, 540.8000000000001) scale(1.3)" fill="rgba(255, 200, 221, 1)"></use><use xlink:href="#SvgjsG5881" transform="translate(270.40000000000003, 0) scale(1.3)" fill="rgba(255, 200, 221, 1)"></use><use xlink:href="#SvgjsG5879" transform="translate(270.40000000000003, 67.60000000000001) scale(1.3)" fill="rgba(255, 200, 221, 1)"></use><use xlink:href="#SvgjsG5879" transform="translate(270.40000000000003, 135.20000000000002) scale(1.3)" fill="rgba(255, 200, 221, 1)"></use><use xlink:href="#SvgjsG5878" transform="translate(270.40000000000003, 202.8) scale(1.3)" fill="rgba(255, 200, 221, 1)"></use><use xlink:href="#SvgjsG5879" transform="translate(270.40000000000003, 270.40000000000003) scale(1.3)" fill="rgba(255, 200, 221, 1)"></use><use xlink:href="#SvgjsG5881" transform="translate(270.40000000000003, 338.00000000000006) scale(1.3)" fill="rgba(255, 200, 221, 1)"></use><use xlink:href="#SvgjsG5881" transform="translate(270.40000000000003, 405.6) scale(1.3)" fill="rgba(255, 200, 221, 1)"></use><use xlink:href="#SvgjsG5881" transform="translate(270.40000000000003, 473.20000000000005) scale(1.3)" fill="rgba(255, 200, 221, 1)"></use><use xlink:href="#SvgjsG5880" transform="translate(270.40000000000003, 540.8000000000001) scale(1.3)" fill="rgba(255, 200, 221, 1)"></use><use xlink:href="#SvgjsG5879" transform="translate(338.00000000000006, 0) scale(1.3)" fill="rgba(255, 200, 221, 1)"></use><use xlink:href="#SvgjsG5880" transform="translate(338.00000000000006, 67.60000000000001) scale(1.3)" fill="rgba(255, 200, 221, 1)"></use><use xlink:href="#SvgjsG5880" transform="translate(338.00000000000006, 135.20000000000002) scale(1.3)" fill="rgba(255, 200, 221, 1)"></use><use xlink:href="#SvgjsG5879" transform="translate(338.00000000000006, 202.8) scale(1.3)" fill="rgba(255, 200, 221, 1)"></use><use xlink:href="#SvgjsG5881" transform="translate(338.00000000000006, 270.40000000000003) scale(1.3)" fill="rgba(255, 200, 221, 1)"></use><use xlink:href="#SvgjsG5881" transform="translate(338.00000000000006, 338.00000000000006) scale(1.3)" fill="rgba(255, 200, 221, 1)"></use><use xlink:href="#SvgjsG5881" transform="translate(338.00000000000006, 405.6) scale(1.3)" fill="rgba(255, 200, 221, 1)"></use><use xlink:href="#SvgjsG5879" transform="translate(338.00000000000006, 473.20000000000005) scale(1.3)" fill="rgba(255, 200, 221, 1)"></use><use xlink:href="#SvgjsG5878" transform="translate(338.00000000000006, 540.8000000000001) scale(1.3)" fill="rgba(255, 200, 221, 1)"></use><use xlink:href="#SvgjsG5878" transform="translate(405.6, 0) scale(1.3)" fill="rgba(255, 200, 221, 1)"></use><use xlink:href="#SvgjsG5880" transform="translate(405.6, 67.60000000000001) scale(1.3)" fill="rgba(255, 200, 221, 1)"></use><use xlink:href="#SvgjsG5878" transform="translate(405.6, 135.20000000000002) scale(1.3)" fill="rgba(255, 200, 221, 1)"></use><use xlink:href="#SvgjsG5878" transform="translate(405.6, 202.8) scale(1.3)" fill="rgba(255, 200, 221, 1)"></use><use xlink:href="#SvgjsG5880" transform="translate(405.6, 270.40000000000003) scale(1.3)" fill="rgba(255, 200, 221, 1)"></use><use xlink:href="#SvgjsG5880" transform="translate(405.6, 338.00000000000006) scale(1.3)" fill="rgba(255, 200, 221, 1)"></use><use xlink:href="#SvgjsG5879" transform="translate(405.6, 405.6) scale(1.3)" fill="rgba(255, 200, 221, 1)"></use><use xlink:href="#SvgjsG5881" transform="translate(405.6, 473.20000000000005) scale(1.3)" fill="rgba(255, 200, 221, 1)"></use><use xlink:href="#SvgjsG5881" transform="translate(405.6, 540.8000000000001) scale(1.3)" fill="rgba(255, 200, 221, 1)"></use><use xlink:href="#SvgjsG5880" transform="translate(473.20000000000005, 0) scale(1.3)" fill="rgba(255, 200, 221, 1)"></use><use xlink:href="#SvgjsG5881" transform="translate(473.20000000000005, 67.60000000000001) scale(1.3)" fill="rgba(255, 200, 221, 1)"></use><use xlink:href="#SvgjsG5880" transform="translate(473.20000000000005, 135.20000000000002) scale(1.3)" fill="rgba(255, 200, 221, 1)"></use><use xlink:href="#SvgjsG5880" transform="translate(473.20000000000005, 202.8) scale(1.3)" fill="rgba(255, 200, 221, 1)"></use><use xlink:href="#SvgjsG5878" transform="translate(473.20000000000005, 270.40000000000003) scale(1.3)" fill="rgba(255, 200, 221, 1)"></use><use xlink:href="#SvgjsG5878" transform="translate(473.20000000000005, 338.00000000000006) scale(1.3)" fill="rgba(255, 200, 221, 1)"></use><use xlink:href="#SvgjsG5881" transform="translate(473.20000000000005, 405.6) scale(1.3)" fill="rgba(255, 200, 221, 1)"></use><use xlink:href="#SvgjsG5881" transform="translate(473.20000000000005, 473.20000000000005) scale(1.3)" fill="rgba(255, 200, 221, 1)"></use><use xlink:href="#SvgjsG5880" transform="translate(473.20000000000005, 540.8000000000001) scale(1.3)" fill="rgba(255, 200, 221, 1)"></use><use xlink:href="#SvgjsG5881" transform="translate(540.8000000000001, 0) scale(1.3)" fill="rgba(255, 200, 221, 1)"></use><use xlink:href="#SvgjsG5879" transform="translate(540.8000000000001, 67.60000000000001) scale(1.3)" fill="rgba(255, 200, 221, 1)"></use><use xlink:href="#SvgjsG5881" transform="translate(540.8000000000001, 135.20000000000002) scale(1.3)" fill="rgba(255, 200, 221, 1)"></use><use xlink:href="#SvgjsG5879" transform="translate(540.8000000000001, 202.8) scale(1.3)" fill="rgba(255, 200, 221, 1)"></use><use xlink:href="#SvgjsG5881" transform="translate(540.8000000000001, 270.40000000000003) scale(1.3)" fill="rgba(255, 200, 221, 1)"></use><use xlink:href="#SvgjsG5881" transform="translate(540.8000000000001, 338.00000000000006) scale(1.3)" fill="rgba(255, 200, 221, 1)"></use><use xlink:href="#SvgjsG5880" transform="translate(540.8000000000001, 405.6) scale(1.3)" fill="rgba(255, 200, 221, 1)"></use><use xlink:href="#SvgjsG5880" transform="translate(540.8000000000001, 473.20000000000005) scale(1.3)" fill="rgba(255, 200, 221, 1)"></use><use xlink:href="#SvgjsG5881" transform="translate(540.8000000000001, 540.8000000000001) scale(1.3)" fill="rgba(255, 200, 221, 1)"></use><use xlink:href="#SvgjsG5881" transform="translate(608.4000000000001, 0) scale(1.3)" fill="rgba(255, 200, 221, 1)"></use><use xlink:href="#SvgjsG5881" transform="translate(608.4000000000001, 67.60000000000001) scale(1.3)" fill="rgba(255, 200, 221, 1)"></use><use xlink:href="#SvgjsG5880" transform="translate(608.4000000000001, 135.20000000000002) scale(1.3)" fill="rgba(255, 200, 221, 1)"></use><use xlink:href="#SvgjsG5878" transform="translate(608.4000000000001, 202.8) scale(1.3)" fill="rgba(255, 200, 221, 1)"></use><use xlink:href="#SvgjsG5879" transform="translate(608.4000000000001, 270.40000000000003) scale(1.3)" fill="rgba(255, 200, 221, 1)"></use><use xlink:href="#SvgjsG5880" transform="translate(608.4000000000001, 338.00000000000006) scale(1.3)" fill="rgba(255, 200, 221, 1)"></use><use xlink:href="#SvgjsG5878" transform="translate(608.4000000000001, 405.6) scale(1.3)" fill="rgba(255, 200, 221, 1)"></use><use xlink:href="#SvgjsG5878" transform="translate(608.4000000000001, 473.20000000000005) scale(1.3)" fill="rgba(255, 200, 221, 1)"></use><use xlink:href="#SvgjsG5881" transform="translate(608.4000000000001, 540.8000000000001) scale(1.3)" fill="rgba(255, 200, 221, 1)"></use></g></defs></svg>