<svg width="900" height="146" viewBox="0 0 900 146" fill="none" xmlns="http://www.w3.org/2000/svg">
<path d="M0 101L21.5 106.3C43 111.7 86 122.3 128.8 115.2C171.7 108 214.3 83 257.2 70.2C300 57.3 343 56.7 385.8 68.5C428.7 80.3 471.3 104.7 514.2 122C557 139.3 600 149.7 642.8 143C685.7 136.3 728.3 112.7 771.2 109.8C814 107 857 125 878.5 134L900 143V0H878.5C857 0 814 0 771.2 0C728.3 0 685.7 0 642.8 0C600 0 557 0 514.2 0C471.3 0 428.7 0 385.8 0C343 0 300 0 257.2 0C214.3 0 171.7 0 128.8 0C86 0 43 0 21.5 0H0V101Z" fill="#CDB4DB"/>
</svg>
