<svg width="960" height="209" viewBox="0 0 960 209" fill="none" xmlns="http://www.w3.org/2000/svg">
<path d="M0 128L14.5 133.5C29 139 58 150 87.2 165.5C116.3 181 145.7 201 174.8 206.7C204 212.3 233 203.7 262 199C291 194.3 320 193.7 349 183C378 172.3 407 151.7 436.2 148.2C465.3 144.7 494.7 158.3 523.8 163.8C553 169.3 582 166.7 611 169.3C640 172 669 180 698 185.7C727 191.3 756 194.7 785.2 193.2C814.3 191.7 843.7 185.3 872.8 185.2C902 185 931 191 945.5 194L960 197V0H945.5C931 0 902 0 872.8 0C843.7 0 814.3 0 785.2 0C756 0 727 0 698 0C669 0 640 0 611 0C582 0 553 0 523.8 0C494.7 0 465.3 0 436.2 0C407 0 378 0 349 0C320 0 291 0 262 0C233 0 204 0 174.8 0C145.7 0 116.3 0 87.2 0C58 0 29 0 14.5 0H0V128Z" fill="#FF70A5"/>
<path d="M0 121H14.5C29 121 58 121 87.2 120.3C116.3 119.7 145.7 118.3 174.8 126C204 133.7 233 150.3 262 148.3C291 146.3 320 125.7 349 124.5C378 123.3 407 141.7 436.2 148.5C465.3 155.3 494.7 150.7 523.8 148.2C553 145.7 582 145.3 611 143.8C640 142.3 669 139.7 698 143.7C727 147.7 756 158.3 785.2 157.8C814.3 157.3 843.7 145.7 872.8 134.5C902 123.3 931 112.7 945.5 107.3L960 102V0H945.5C931 0 902 0 872.8 0C843.7 0 814.3 0 785.2 0C756 0 727 0 698 0C669 0 640 0 611 0C582 0 553 0 523.8 0C494.7 0 465.3 0 436.2 0C407 0 378 0 349 0C320 0 291 0 262 0C233 0 204 0 174.8 0C145.7 0 116.3 0 87.2 0C58 0 29 0 14.5 0H0V121Z" fill="#FF96BD"/>
<path d="M0 86L14.5 85.3C29 84.7 58 83.3 87.2 79.5C116.3 75.7 145.7 69.3 174.8 73.5C204 77.7 233 92.3 262 100.3C291 108.3 320 109.7 349 111.8C378 114 407 117 436.2 110.8C465.3 104.7 494.7 89.3 523.8 83.2C553 77 582 80 611 77.7C640 75.3 669 67.7 698 67.3C727 67 756 74 785.2 80.2C814.3 86.3 843.7 91.7 872.8 96.3C902 101 931 105 945.5 107L960 109V0H945.5C931 0 902 0 872.8 0C843.7 0 814.3 0 785.2 0C756 0 727 0 698 0C669 0 640 0 611 0C582 0 553 0 523.8 0C494.7 0 465.3 0 436.2 0C407 0 378 0 349 0C320 0 291 0 262 0C233 0 204 0 174.8 0C145.7 0 116.3 0 87.2 0C58 0 29 0 14.5 0H0V86Z" fill="#FFB9D3"/>
<path d="M0 58L14.5 55.3C29 52.7 58 47.3 87.2 46.5C116.3 45.7 145.7 49.3 174.8 50.3C204 51.3 233 49.7 262 52.2C291 54.7 320 61.3 349 66.3C378 71.3 407 74.7 436.2 74.3C465.3 74 494.7 70 523.8 65.8C553 61.7 582 57.3 611 58C640 58.7 669 64.3 698 61.7C727 59 756 48 785.2 43.7C814.3 39.3 843.7 41.7 872.8 46.8C902 52 931 60 945.5 64L960 68V0H945.5C931 0 902 0 872.8 0C843.7 0 814.3 0 785.2 0C756 0 727 0 698 0C669 0 640 0 611 0C582 0 553 0 523.8 0C494.7 0 465.3 0 436.2 0C407 0 378 0 349 0C320 0 291 0 262 0C233 0 204 0 174.8 0C145.7 0 116.3 0 87.2 0C58 0 29 0 14.5 0H0V58Z" fill="#FFDAE8"/>
</svg>
