<svg width="900" height="139" viewBox="0 0 900 139" fill="none" xmlns="http://www.w3.org/2000/svg">
<path d="M900 8.4527H0V139H900V8.4527Z" fill="#B591CA"/>
<path d="M0 86.4054L16.7 88.2838C33.3 90.1622 66.7 93.9189 100 100.775C133.3 107.725 166.7 117.68 200 121.155C233.3 124.63 266.7 121.437 300 116.459C333.3 111.482 366.7 104.532 400 107.537C433.3 110.543 466.7 123.316 500 125.1C533.3 126.791 566.7 117.399 600 115.52C633.3 113.642 666.7 119.277 700 114.863C733.3 110.543 766.7 96.0791 800 90.35C833.3 84.527 866.7 87.3446 883.3 88.7534L900 90.1622V0H883.3C866.7 0 833.3 0 800 0C766.7 0 733.3 0 700 0C666.7 0 633.3 0 600 0C566.7 0 533.3 0 500 0C466.7 0 433.3 0 400 0C366.7 0 333.3 0 300 0C266.7 0 233.3 0 200 0C166.7 0 133.3 0 100 0C66.7 0 33.3 0 16.7 0H0V86.4054Z" fill="#FFAFCC"/>
<path d="M0 35.6892L16.7 41.7939C33.3 47.8986 66.7 60.1081 100 61.5169C133.3 62.9257 166.7 53.5338 200 54.1912C233.3 54.7547 266.7 65.4615 300 64.6162C333.3 63.8649 366.7 51.6554 400 50.9041C433.3 50.0588 466.7 60.7655 500 66.025C533.3 71.3784 566.7 71.3784 600 69.7818C633.3 68.2791 666.7 65.0858 700 67.3399C733.3 69.5 766.7 77.0135 800 73.2568C833.3 69.5 866.7 54.473 883.3 46.9595L900 39.4459V0H883.3C866.7 0 833.3 0 800 0C766.7 0 733.3 0 700 0C666.7 0 633.3 0 600 0C566.7 0 533.3 0 500 0C466.7 0 433.3 0 400 0C366.7 0 333.3 0 300 0C266.7 0 233.3 0 200 0C166.7 0 133.3 0 100 0C66.7 0 33.3 0 16.7 0H0V35.6892Z" fill="#FFC8DD"/>
</svg>
