<svg width="960" height="163" viewBox="0 0 960 163" fill="none" xmlns="http://www.w3.org/2000/svg">
<path d="M960 0H0V163H960V0Z" fill="#FF5C99"/>
<path d="M0 163L20 156.588C40 150.099 80 137.275 120 129.009C160 120.744 200 117.19 240 120.744C280 124.374 320 135.19 360 142.76C400 150.408 440 154.734 480 149.327C520 143.919 560 128.778 600 127.233C640 125.688 680 137.739 720 140.443C760 143.146 800 136.503 840 138.434C880 140.365 920 150.872 940 156.202L960 161.455V0H940C920 0 880 0 840 0C800 0 760 0 720 0C680 0 640 0 600 0C560 0 520 0 480 0C440 0 400 0 360 0C320 0 280 0 240 0C200 0 160 0 120 0C80 0 40 0 20 0H0V163Z" fill="#FF5C99"/>
<path d="M0 163L20 154.2C40 145.3 80 127.7 120 120C160 112.3 200 114.7 240 119.3C280 124 320 131 360 132.7C400 134.3 440 130.7 480 126.5C520 122.3 560 117.7 600 123.7C640 129.7 680 146.3 720 149.7C760 153 800 143 840 140.3C880 137.7 920 142.3 940 144.7L960 147V0H940C920 0 880 0 840 0C800 0 760 0 720 0C680 0 640 0 600 0C560 0 520 0 480 0C440 0 400 0 360 0C320 0 280 0 240 0C200 0 160 0 120 0C80 0 40 0 20 0H0V163Z" fill="#FF84B2"/>
<path d="M0 79L20 79.8C40 80.7 80 82.3 120 86.2C160 90 200 96 240 96C280 96 320 90 360 88.8C400 87.7 440 91.3 480 96.3C520 101.3 560 107.7 600 110.2C640 112.7 680 111.3 720 103.7C760 96 800 82 840 78C880 74 920 80 940 83L960 86V0H940C920 0 880 0 840 0C800 0 760 0 720 0C680 0 640 0 600 0C560 0 520 0 480 0C440 0 400 0 360 0C320 0 280 0 240 0C200 0 160 0 120 0C80 0 40 0 20 0H0V79Z" fill="#FFA7C8"/>
<path d="M0 70L20 67.5C40 65 80 60 120 59.7C160 59.3 200 63.7 240 63.8C280 64 320 60 360 58.8C400 57.7 440 59.3 480 59C520 58.7 560 56.3 600 58.5C640 60.7 680 67.3 720 67.2C760 67 800 60 840 53C880 46 920 39 940 35.5L960 32V0H940C920 0 880 0 840 0C800 0 760 0 720 0C680 0 640 0 600 0C560 0 520 0 480 0C440 0 400 0 360 0C320 0 280 0 240 0C200 0 160 0 120 0C80 0 40 0 20 0H0V70Z" fill="#FFC8DD"/>
</svg>
