<svg width="900" height="172" viewBox="0 0 900 172" fill="none" xmlns="http://www.w3.org/2000/svg">
<path d="M900 0H0V172H900V0Z" fill="#FFC8DD"/>
<path d="M0 169L21.5 166.7C43 164.3 86 159.7 128.8 156.8C171.7 154 214.3 153 257.2 156.8C300 160.7 343 169.3 385.8 167.3C428.7 165.3 471.3 152.7 514.2 146.3C557 140 600 140 642.8 144.3C685.7 148.7 728.3 157.3 771.2 162.7C814 168 857 170 878.5 171L900 172V0H878.5C857 0 814 0 771.2 0C728.3 0 685.7 0 642.8 0C600 0 557 0 514.2 0C471.3 0 428.7 0 385.8 0C343 0 300 0 257.2 0C214.3 0 171.7 0 128.8 0C86 0 43 0 21.5 0H0V169Z" fill="#FFAFCC"/>
<path d="M0 151L21.5 146C43 141 86 131 128.8 131.3C171.7 131.7 214.3 142.3 257.2 142.3C300 142.3 343 131.7 385.8 125.7C428.7 119.7 471.3 118.3 514.2 113.3C557 108.3 600 99.7 642.8 103.8C685.7 108 728.3 125 771.2 133.8C814 142.7 857 143.3 878.5 143.7L900 144V0H878.5C857 0 814 0 771.2 0C728.3 0 685.7 0 642.8 0C600 0 557 0 514.2 0C471.3 0 428.7 0 385.8 0C343 0 300 0 257.2 0C214.3 0 171.7 0 128.8 0C86 0 43 0 21.5 0H0V151Z" fill="#FFA0C3"/>
<path d="M0 117L21.5 110C43 103 86 89 128.8 85.5C171.7 82 214.3 89 257.2 94C300 99 343 102 385.8 97.5C428.7 93 471.3 81 514.2 74.7C557 68.3 600 67.7 642.8 74.7C685.7 81.7 728.3 96.3 771.2 102C814 107.7 857 104.3 878.5 102.7L900 101V0H878.5C857 0 814 0 771.2 0C728.3 0 685.7 0 642.8 0C600 0 557 0 514.2 0C471.3 0 428.7 0 385.8 0C343 0 300 0 257.2 0C214.3 0 171.7 0 128.8 0C86 0 43 0 21.5 0H0V117Z" fill="#FF91B9"/>
<path d="M0 86L21.5 81.8C43 77.7 86 69.3 128.8 65.8C171.7 62.3 214.3 63.7 257.2 67.5C300 71.3 343 77.7 385.8 81C428.7 84.3 471.3 84.7 514.2 79.5C557 74.3 600 63.7 642.8 59.2C685.7 54.7 728.3 56.3 771.2 58.2C814 60 857 62 878.5 63L900 64V0H878.5C857 0 814 0 771.2 0C728.3 0 685.7 0 642.8 0C600 0 557 0 514.2 0C471.3 0 428.7 0 385.8 0C343 0 300 0 257.2 0C214.3 0 171.7 0 128.8 0C86 0 43 0 21.5 0H0V86Z" fill="#FF81AF"/>
<path d="M0 44L21.5 44.7C43 45.3 86 46.7 128.8 44.8C171.7 43 214.3 38 257.2 37C300 36 343 39 385.8 42.3C428.7 45.7 471.3 49.3 514.2 47.2C557 45 600 37 642.8 31.8C685.7 26.7 728.3 24.3 771.2 23.3C814 22.3 857 22.7 878.5 22.8L900 23V0H878.5C857 0 814 0 771.2 0C728.3 0 685.7 0 642.8 0C600 0 557 0 514.2 0C471.3 0 428.7 0 385.8 0C343 0 300 0 257.2 0C214.3 0 171.7 0 128.8 0C86 0 43 0 21.5 0H0V44Z" fill="#FF70A5"/>
</svg>
