<svg width="385" height="90" viewBox="0 0 385 90" fill="none" xmlns="http://www.w3.org/2000/svg">
<path fill-rule="evenodd" clip-rule="evenodd" d="M38.5104 20.7322L7.49574 41.443C6.47433 42.1259 5.88709 43.2209 5.88709 44.4498C5.88238 45.0458 6.02716 45.6334 6.30818 46.1589C6.5892 46.6844 6.9975 47.1311 7.49574 47.4581L38.5104 68.1704C39.1595 68.604 39.6098 69.2778 39.7621 70.0435C39.9145 70.8091 39.7564 71.6039 39.3228 72.2531C39.1084 72.5749 38.8327 72.8513 38.5113 73.0665C38.19 73.2816 37.8293 73.4311 37.4501 73.5066C37.0708 73.5821 36.6803 73.582 36.3011 73.5063C35.9219 73.4306 35.5613 73.2808 35.2401 73.0655L4.22546 52.3547C2.92422 51.4877 1.85752 50.3125 1.12031 48.9336C0.383094 47.5547 -0.00175882 46.0149 6.04268e-06 44.4513C-0.00175882 42.8877 0.383094 41.3479 1.12031 39.969C1.85752 38.5901 2.92422 37.4149 4.22546 36.5479L35.2401 15.8371C35.5615 15.62 35.9226 15.4685 36.3027 15.3914C36.6828 15.3142 37.0744 15.313 37.455 15.3877C37.8356 15.4624 38.1976 15.6115 38.5204 15.8266C38.8431 16.0417 39.1202 16.3184 39.3357 16.6409C39.5511 16.9634 39.7007 17.3254 39.7758 17.7059C39.851 18.0864 39.8502 18.478 39.7735 18.8582C39.6968 19.2383 39.5457 19.5996 39.329 19.9212C39.1122 20.2429 38.834 20.5185 38.5104 20.7322ZM92.6465 15.8371L123.663 36.5479C124.964 37.4149 126.031 38.5901 126.768 39.969C127.505 41.3479 127.89 42.8877 127.888 44.4513C127.89 46.0149 127.505 47.5547 126.768 48.9336C126.031 50.3125 124.964 51.4877 123.663 52.3547L92.648 73.0655C92.3266 73.2826 91.9655 73.4341 91.5854 73.5112C91.2053 73.5884 90.8137 73.5896 90.4331 73.5149C90.0525 73.4402 89.6905 73.2911 89.3677 73.076C89.045 72.8609 88.7679 72.5842 88.5524 72.2617C88.337 71.9392 88.1874 71.5773 88.1123 71.1968C88.0371 70.8163 88.0379 70.4246 88.1146 70.0444C88.1913 69.6643 88.3424 69.303 88.5591 68.9814C88.7759 68.6597 89.0541 68.3841 89.3777 68.1704L120.391 47.4581C120.889 47.1313 121.298 46.6847 121.579 46.1591C121.86 45.6335 122.005 45.0458 122 44.4498C122.004 43.8541 121.859 43.2668 121.578 42.7416C121.297 42.2163 120.889 41.7699 120.391 41.443L89.3762 20.7322C88.7316 20.2967 88.2856 19.6236 88.1358 18.8602C87.9859 18.0967 88.1444 17.305 88.5766 16.6581C89.0088 16.0112 89.6795 15.5617 90.4422 15.4078C91.2048 15.254 91.9973 15.4083 92.6465 15.8371ZM76.0066 0.327841C76.7002 -0.0301271 77.5075 -0.0979767 78.2511 0.139215C78.9947 0.37665 79.6134 0.899665 79.9714 1.59324C80.3294 2.28682 80.3972 3.09418 80.16 3.83778L53.334 87.8892C53.2232 88.2651 53.0383 88.6152 52.7903 88.9187C52.5423 89.2223 52.2362 89.4733 51.8899 89.6569C51.5436 89.8406 51.1642 89.9532 50.7738 89.9883C50.3833 90.0233 49.9899 89.98 49.6164 89.8609C49.243 89.7418 48.8971 89.5493 48.599 89.2947C48.301 89.0402 48.0567 88.7286 47.8807 88.3784C47.7047 88.0282 47.6004 87.6463 47.5739 87.2552C47.5474 86.8641 47.5994 86.4717 47.7266 86.101L74.5526 2.0481C74.79 1.30459 75.313 0.685809 76.0066 0.327841ZM149.861 74.2606C148.759 74.2606 147.779 73.3422 147.779 72.179V16.3422C147.779 15.179 148.759 14.2606 149.861 14.2606C151.085 14.2606 152.004 15.179 152.004 16.3422V72.179C152.004 73.3422 151.085 74.2606 149.861 74.2606ZM175.759 74.2606C173.371 74.2606 171.473 72.3626 171.473 69.9749C171.473 67.5871 173.371 65.6892 175.759 65.6892C178.146 65.6892 180.044 67.5871 180.044 69.9749C180.044 72.3626 178.146 74.2606 175.759 74.2606ZM222.228 69.7912C218.677 72.5463 213.963 74.2606 209.004 74.2606C197.004 74.2606 187.391 65.0157 187.391 53.1994C187.391 41.5055 197.004 32.2606 209.004 32.2606C213.963 32.2606 218.677 33.9749 222.351 36.9137C223.208 37.4647 223.391 38.7504 222.657 39.73C221.922 40.4647 220.759 40.7708 219.779 40.0361C216.779 37.6483 213.044 36.3014 209.004 36.3014C199.208 36.3014 191.493 43.8932 191.493 53.1994C191.493 62.6279 199.208 70.1585 209.004 70.1585C213.044 70.1585 216.779 68.7504 219.779 66.4851C220.759 65.7504 221.922 66.0565 222.657 66.7912C223.391 67.7708 223.208 69.0565 222.228 69.7912ZM255.963 74.2606C245.004 74.2606 236.065 64.6483 236.065 53.2606C236.065 41.8728 245.004 32.2606 255.963 32.2606C267.044 32.2606 275.861 41.8728 275.861 53.2606C275.861 64.6483 267.044 74.2606 255.963 74.2606ZM255.963 36.3014C247.391 36.3014 240.228 43.8932 240.228 53.2606C240.228 62.6279 247.391 70.1585 255.963 70.1585C264.534 70.1585 271.759 62.6279 271.759 53.2606C271.759 43.8932 264.534 36.3014 255.963 36.3014ZM327.351 74.2606C326.187 74.2606 325.208 73.3422 325.208 72.179V66.1177C321.534 71.0769 315.718 74.2606 309.106 74.2606C297.779 74.2606 288.779 64.832 288.779 53.3218C288.779 41.6892 297.779 32.2606 309.106 32.2606C315.718 32.2606 321.534 35.5055 325.208 40.4647V16.3422C325.208 15.179 326.187 14.2606 327.351 14.2606C328.514 14.2606 329.432 15.179 329.432 16.3422V52.4647V53.3218V72.179C329.432 73.3422 328.514 74.2606 327.351 74.2606ZM293.004 53.3218C293.004 62.6279 300.289 70.0361 309.106 70.0361C317.8 70.0361 324.902 62.9341 325.208 54.0565V52.6483C324.902 43.6483 317.8 36.4851 309.106 36.4851C300.289 36.4851 293.004 44.0157 293.004 53.3218ZM381.289 64.7708C377.677 70.4647 371.432 74.2606 364.33 74.2606C353.004 74.2606 343.942 64.832 343.942 53.3218C343.942 41.6892 353.004 32.2606 364.33 32.2606C375.106 32.2606 383.677 40.832 384.534 51.7912V51.9136V52.1585C384.534 53.2606 383.616 54.0565 382.514 54.0565H348.044C348.473 63.179 355.636 70.1585 364.33 70.1585C369.902 70.1585 375.044 67.2198 377.861 62.5055C378.473 61.4647 379.759 61.3422 380.616 61.832C381.534 62.5055 381.902 63.73 381.289 64.7708ZM380.065 50.0157C378.718 42.1177 372.044 36.3626 364.33 36.3626C356.432 36.3626 349.82 42.0565 348.289 50.0157H380.065Z" fill="url(#paint0_radial_2_26)"/>
<defs>
<radialGradient id="paint0_radial_2_26" cx="0" cy="0" r="1" gradientUnits="userSpaceOnUse" gradientTransform="translate(391.891 45.2605) rotate(-180) scale(392 1674.86)">
<stop offset="0.105927" stop-color="#FF0072"/>
<stop offset="0.551501" stop-color="#F45608"/>
<stop offset="0.933421" stop-color="#47126B"/>
</radialGradient>
</defs>
</svg>
